<svg width="280" height="35" viewBox="0 0 280 35" fill="none" xmlns="http://www.w3.org/2000/svg">
<g filter="url(#filter0_d_329_285)">
<path d="M18.884 26L10.388 14.84V26H4.232V0.727999H10.388V11.816L18.812 0.727999H26.048L16.256 13.112L26.408 26H18.884ZM45.0656 21.536H35.6336L34.1216 26H27.6776L36.8216 0.727999H43.9496L53.0936 26H46.5776L45.0656 21.536ZM43.4816 16.784L40.3496 7.532L37.2536 16.784H43.4816ZM84.4965 0.727999V26H78.3405V10.844L72.6885 26H67.7205L62.0325 10.808V26H55.8765V0.727999H63.1485L70.2405 18.224L77.2605 0.727999H84.4965ZM104.223 13.04C105.687 13.352 106.863 14.084 107.751 15.236C108.639 16.364 109.083 17.66 109.083 19.124C109.083 21.236 108.339 22.916 106.851 24.164C105.387 25.388 103.335 26 100.695 26H88.9234V0.727999H100.299C102.867 0.727999 104.871 1.316 106.311 2.492C107.775 3.668 108.507 5.264 108.507 7.28C108.507 8.768 108.111 10.004 107.319 10.988C106.551 11.972 105.519 12.656 104.223 13.04ZM95.0794 10.952H99.1114C100.119 10.952 100.887 10.736 101.415 10.304C101.967 9.848 102.243 9.188 102.243 8.324C102.243 7.46 101.967 6.8 101.415 6.344C100.887 5.888 100.119 5.66 99.1114 5.66H95.0794V10.952ZM99.6154 21.032C100.647 21.032 101.439 20.804 101.991 20.348C102.567 19.868 102.855 19.184 102.855 18.296C102.855 17.408 102.555 16.712 101.955 16.208C101.379 15.704 100.575 15.452 99.5434 15.452H95.0794V21.032H99.6154ZM128.386 21.536H118.954L117.442 26H110.998L120.142 0.727999H127.27L136.414 26H129.898L128.386 21.536ZM126.802 16.784L123.67 7.532L120.574 16.784H126.802Z" fill="#7B09A6"/>
<path d="M161.805 26H155.649L145.353 10.412V26H139.197V0.727999H145.353L155.649 16.388V0.727999H161.805V26ZM181.999 21.536H172.567L171.055 26H164.611L173.755 0.727999H180.883L190.027 26H183.511L181.999 21.536ZM180.415 16.784L177.283 7.532L174.187 16.784H180.415ZM210.99 0.727999V5.66H204.294V26H198.138V5.66H191.442V0.727999H210.99ZM220.236 0.727999V26H214.08V0.727999H220.236ZM236.649 26.252C234.273 26.252 232.089 25.7 230.097 24.596C228.129 23.492 226.557 21.956 225.381 19.988C224.229 17.996 223.653 15.764 223.653 13.292C223.653 10.82 224.229 8.6 225.381 6.632C226.557 4.664 228.129 3.128 230.097 2.024C232.089 0.92 234.273 0.368 236.649 0.368C239.025 0.368 241.197 0.92 243.165 2.024C245.157 3.128 246.717 4.664 247.845 6.632C248.997 8.6 249.573 10.82 249.573 13.292C249.573 15.764 248.997 17.996 247.845 19.988C246.693 21.956 245.133 23.492 243.165 24.596C241.197 25.7 239.025 26.252 236.649 26.252ZM236.649 20.636C238.665 20.636 240.273 19.964 241.473 18.62C242.697 17.276 243.309 15.5 243.309 13.292C243.309 11.06 242.697 9.284 241.473 7.964C240.273 6.62 238.665 5.948 236.649 5.948C234.609 5.948 232.977 6.608 231.753 7.928C230.553 9.248 229.953 11.036 229.953 13.292C229.953 15.524 230.553 17.312 231.753 18.656C232.977 19.976 234.609 20.636 236.649 20.636ZM275.606 26H269.45L259.154 10.412V26H252.998V0.727999H259.154L269.45 16.388V0.727999H275.606V26Z" fill="#F05439"/>
</g>
<defs>
<filter id="filter0_d_329_285" x="0.232422" y="0.367981" width="279.373" height="33.884" filterUnits="userSpaceOnUse" color-interpolation-filters="sRGB">
<feFlood flood-opacity="0" result="BackgroundImageFix"/>
<feColorMatrix in="SourceAlpha" type="matrix" values="0 0 0 0 0 0 0 0 0 0 0 0 0 0 0 0 0 0 127 0" result="hardAlpha"/>
<feOffset dy="4"/>
<feGaussianBlur stdDeviation="2"/>
<feComposite in2="hardAlpha" operator="out"/>
<feColorMatrix type="matrix" values="0 0 0 0 0 0 0 0 0 0 0 0 0 0 0 0 0 0 0.25 0"/>
<feBlend mode="normal" in2="BackgroundImageFix" result="effect1_dropShadow_329_285"/>
<feBlend mode="normal" in="SourceGraphic" in2="effect1_dropShadow_329_285" result="shape"/>
</filter>
</defs>
</svg>
