<svg width="18" height="20" viewBox="0 0 18 20" fill="none" xmlns="http://www.w3.org/2000/svg">
<path d="M12.999 15.001V12.001H6V7.99901H12.999V4.99901L18 10L12.999 15.001ZM11.001 0.00100764C11.2634 0.000810397 11.5233 0.0523556 11.7658 0.152695C12.0083 0.253034 12.2287 0.400198 12.4142 0.585768C12.5998 0.771339 12.747 0.991675 12.8473 1.23417C12.9477 1.47667 12.9992 1.73657 12.999 1.99901V4.00001H11.001V1.99901H2.001V18.001H11.001V16H12.999V18.001C12.9992 18.2634 12.9477 18.5233 12.8473 18.7658C12.747 19.0083 12.5998 19.2287 12.4142 19.4142C12.2287 19.5998 12.0083 19.747 11.7658 19.8473C11.5233 19.9477 11.2634 19.9992 11.001 19.999H2.001C1.73842 19.9992 1.47838 19.9477 1.23571 19.8474C0.993044 19.7471 0.77251 19.6 0.5867 19.4144C0.40089 19.2289 0.253443 19.0086 0.152777 18.7661C0.0521106 18.5236 0.000196909 18.2636 0 18.001V1.99901C0.000196909 1.73643 0.0521106 1.47646 0.152777 1.23395C0.253443 0.991431 0.40089 0.771118 0.5867 0.585587C0.77251 0.400055 0.993044 0.252939 1.23571 0.152636C1.47838 0.052334 1.73842 0.000810587 2.001 0.00100764H11.001Z" fill="black"/>
</svg>
