<svg width="32" height="31" viewBox="0 0 32 31" fill="none" xmlns="http://www.w3.org/2000/svg">
<path d="M6.64005 0.726997C9.85605 0.709997 13.0751 0.709997 16.2941 0.718997C25.2351 0.726997 25.9071 0.714997 26.5211 0.901997C26.6111 0.929997 26.6921 0.956997 26.7981 0.991997C27.9188 1.34474 28.9204 2.00015 29.6924 2.88595C30.4644 3.77174 30.9768 4.85352 31.1731 6.012C31.2941 6.703 31.2941 20.105 31.1731 20.848C30.8371 22.91 29.3961 24.766 27.4781 25.598C26.3211 26.102 26.0441 26.133 22.9081 26.133H20.3481L16.0001 30.48L11.6521 26.133H9.09405C5.95705 26.133 5.68005 26.102 4.52405 25.598C2.60505 24.766 1.16405 22.91 0.828055 20.848C0.707055 20.105 0.707055 6.703 0.828055 6.012C1.02604 4.83973 1.54798 3.74621 2.33489 2.85503C3.12181 1.96386 4.14231 1.31057 5.28105 0.968997C5.72676 0.850148 6.18071 0.769193 6.64005 0.726997ZM26.1401 3.445L25.6801 3.281L16.1331 3.27C8.36305 3.262 6.52705 3.273 6.26605 3.332C4.92605 3.629 3.78905 4.707 3.40205 6.051L3.28205 6.481V13.414C3.28205 19.898 3.27005 20.488 3.45705 21L3.55905 21.25C3.91405 22.117 4.75805 22.969 5.60505 23.313C6.30105 23.593 6.26505 23.59 9.60205 23.613L12.7191 23.629L14.3591 25.269L16.0001 26.907L17.6401 25.271L19.2811 23.63L22.3981 23.614C25.7341 23.591 25.6991 23.594 26.3951 23.314C27.2501 22.966 28.0851 22.118 28.4451 21.235C28.4801 21.157 28.5081 21.087 28.5351 21.017C28.7271 20.489 28.7191 19.887 28.7191 13.36V6.48L28.5981 6.05C28.4194 5.45456 28.1043 4.90903 27.6778 4.45679C27.2512 4.00456 26.725 3.65811 26.1411 3.445H26.1401Z" fill="black"/>
</svg>
