<svg width="22" height="27" viewBox="0 0 22 27" fill="none" xmlns="http://www.w3.org/2000/svg">
<path d="M11 26.332C12.465 26.332 13.668 25.132 13.668 23.668H8.33203C8.3352 24.3743 8.61743 25.0507 9.11721 25.5497C9.61698 26.0487 10.2938 26.3299 11 26.332ZM19 18.332V11.668C19 7.57403 16.828 4.14803 13 3.23803V2.33203C13 1.8016 12.7893 1.29289 12.4142 0.917818C12.0392 0.542745 11.5305 0.332031 11 0.332031C10.4696 0.332031 9.96089 0.542745 9.58582 0.917818C9.21075 1.29289 9.00003 1.8016 9.00003 2.33203V3.23803C5.18703 4.14803 3.00003 7.55803 3.00003 11.668V18.332L0.332031 21V22.332H21.668V21L19 18.332ZM16.332 19.668H5.66803V11.668C5.66803 8.35903 7.68003 5.66803 11 5.66803C14.32 5.66803 16.332 8.35903 16.332 11.668V19.668Z" fill="black"/>
</svg>
