<svg width="24" height="25" viewBox="0 0 24 25" fill="none" xmlns="http://www.w3.org/2000/svg">
<path d="M9.49954 22.3345C9.50047 22.6412 9.44069 22.945 9.32366 23.2284C9.20662 23.5119 9.03464 23.7694 8.81763 23.9861C8.60062 24.2028 8.34287 24.3743 8.05924 24.491C7.77561 24.6076 7.4717 24.6669 7.16504 24.6655C6.85854 24.6669 6.5548 24.6075 6.27136 24.4909C5.98792 24.3742 5.7304 24.2026 5.51367 23.9859C5.29694 23.7691 5.1253 23.5116 5.00864 23.2282C4.89199 22.9447 4.83265 22.641 4.83404 22.3345C4.83404 21.0395 5.88404 20 7.16504 20C8.45041 20 9.49954 21.05 9.49954 22.3345ZM18.834 20C18.2153 20.0014 17.6223 20.2478 17.1848 20.6853C16.7473 21.1228 16.5009 21.7158 16.4995 22.3345C16.4995 23.6164 17.5495 24.6655 18.834 24.6655C19.1402 24.6657 19.4434 24.6056 19.7263 24.4885C20.0093 24.3715 20.2663 24.1998 20.4828 23.9833C20.6993 23.7668 20.871 23.5097 20.9881 23.2268C21.1051 22.9439 21.1653 22.6407 21.165 22.3345C21.1664 22.0278 21.1071 21.7239 20.9905 21.4403C20.8739 21.1567 20.7023 20.8989 20.4856 20.6819C20.2689 20.4649 20.0114 20.2929 19.728 20.1759C19.4445 20.0588 19.1407 19.9991 18.834 20ZM7.36279 16.2095L7.40129 16.0695L8.45041 14.1655H17.1418C18.0168 14.1655 18.7868 13.6869 19.1823 12.9659L23.6877 4.78637L21.6577 3.6655H21.6437L20.3618 6L17.1418 11.8345H8.95266L8.79866 11.5195L6.18766 6L5.07641 3.6655L3.97916 1.3345H0.165039V3.6655H2.49954L6.69954 12.5214L5.12454 15.38C4.92949 15.7349 4.8302 16.1345 4.83644 16.5394C4.84268 16.9444 4.95423 17.3407 5.16012 17.6895C5.36601 18.0382 5.65915 18.3273 6.01068 18.5284C6.36222 18.7295 6.76006 18.8356 7.16504 18.8363L21.165 18.8354V16.5H7.65766C7.58057 16.4991 7.50683 16.4683 7.45198 16.4141C7.39714 16.3599 7.36547 16.2866 7.36366 16.2095M19.9995 2.22L18.3554 0.561874L12.709 6.20825L9.68766 3.18687L8.04004 4.8345L12.709 9.5L19.9995 2.22Z" fill="black"/>
</svg>
