<svg width="24" height="24" viewBox="0 0 24 24" fill="none" xmlns="http://www.w3.org/2000/svg">
<path d="M12 0.625C5.728 0.625 0.625 5.728 0.625 12C0.625 18.272 5.728 23.375 12 23.375C18.272 23.375 23.375 18.272 23.375 12C23.375 5.728 18.272 0.625 12 0.625ZM12 2.375C17.3078 2.375 21.625 6.69225 21.625 12C21.625 17.3078 17.3078 21.625 12 21.625C6.69225 21.625 2.375 17.3078 2.375 12C2.375 6.69225 6.69225 2.375 12 2.375ZM9.375 7.625V17.25H11.125V13.75H13.3125C15.0013 13.75 16.375 12.3763 16.375 10.6875C16.375 8.99875 15.0013 7.625 13.3125 7.625H9.375ZM11.125 9.375H13.3125C13.6606 9.375 13.9944 9.51328 14.2406 9.75942C14.4867 10.0056 14.625 10.3394 14.625 10.6875C14.625 11.0356 14.4867 11.3694 14.2406 11.6156C13.9944 11.8617 13.6606 12 13.3125 12H11.125V9.375Z" fill="#730C99"/>
</svg>
