<svg width="20" height="20" viewBox="0 0 20 20" fill="none" xmlns="http://www.w3.org/2000/svg">
<path d="M8.13383 12.8C8.13359 13.7897 7.74034 14.7388 7.04053 15.4386C6.34072 16.1384 5.39163 16.5316 4.40195 16.5319C3.90349 16.5451 3.40743 16.4583 2.94304 16.2767C2.47866 16.0951 2.05536 15.8223 1.69812 15.4744C1.34089 15.1265 1.05696 14.7106 0.863088 14.2512C0.669218 13.7918 0.569336 13.2982 0.569336 12.7996C0.569336 12.3009 0.669218 11.8073 0.863088 11.3479C1.05696 10.8885 1.34089 10.4726 1.69812 10.1247C2.05536 9.77684 2.47866 9.50403 2.94304 9.32241C3.40743 9.14079 3.90349 9.05403 4.40195 9.06725C5.39163 9.06748 6.34072 9.46074 7.04053 10.1605C7.74034 10.8604 8.13359 11.8094 8.13383 12.7991V12.8ZM15.5985 17C15.5985 17.6187 15.3527 18.212 14.9152 18.6495C14.4777 19.087 13.8844 19.3328 13.2657 19.3328C12.647 19.3328 12.0537 19.087 11.6162 18.6495C11.1787 18.212 10.933 17.6187 10.933 17C10.933 16.3813 11.1787 15.788 11.6162 15.3505C12.0537 14.913 12.647 14.6672 13.2657 14.6672C13.8844 14.6672 14.4777 14.913 14.9152 15.3505C15.3527 15.788 15.5985 16.3813 15.5985 17ZM19.3347 6.26725C19.3346 7.00273 19.1896 7.73098 18.908 8.41041C18.6264 9.08985 18.2138 9.70716 17.6936 10.2271C17.1734 10.747 16.5559 11.1594 15.8763 11.4407C15.1967 11.722 14.4684 11.8666 13.733 11.8664C12.9976 11.8666 12.2694 11.7219 11.59 11.4406C10.9106 11.1593 10.2932 10.7469 9.77326 10.2269C9.25329 9.70697 8.84087 9.08964 8.55957 8.41022C8.27826 7.73079 8.13359 7.0026 8.13383 6.26725C8.13383 4.78192 8.72387 3.35743 9.77416 2.30714C10.8244 1.25686 12.2489 0.666813 13.7343 0.666813C15.2196 0.666813 16.6441 1.25686 17.6944 2.30714C18.7447 3.35743 19.3347 4.78192 19.3347 6.26725Z" fill="black"/>
</svg>
