<svg width="22" height="21" viewBox="0 0 22 21" fill="none" xmlns="http://www.w3.org/2000/svg">
<path fill-rule="evenodd" clip-rule="evenodd" d="M8.48407 0C4.09534 0 0.53125 3.50926 0.53125 7.83047C0.53125 12.1517 4.09534 15.6609 8.48407 15.6609C12.8728 15.6609 16.4369 12.1517 16.4369 7.83047C16.4369 3.50926 12.8728 0 8.48407 0ZM8.48407 1.20469C12.1987 1.20469 15.2134 4.17304 15.2134 7.83047C15.2134 11.4879 12.1987 14.4563 8.48407 14.4563C4.76949 14.4563 1.75476 11.4879 1.75476 7.83047C1.75476 4.17304 4.76949 1.20469 8.48407 1.20469Z" fill="#B4B1B1"/>
<path fill-rule="evenodd" clip-rule="evenodd" d="M21.1522 19.4509L14.106 12.5143C13.8674 12.2794 13.4795 12.2794 13.241 12.5143C13.0024 12.7492 13.0024 13.1311 13.241 13.366L20.2859 20.3038C20.5257 20.5387 20.9124 20.5387 21.1522 20.3038C21.3908 20.0677 21.3908 19.687 21.1522 19.4509Z" fill="#B4B1B1"/>
</svg>
