<svg width="24" height="24" viewBox="0 0 24 24" fill="none" xmlns="http://www.w3.org/2000/svg">
<path d="M20.6676 13.1454C20.7157 12.7691 20.7498 12.3964 20.7498 12C20.7498 11.6036 20.7148 11.2309 20.6676 10.8546L23.129 8.9305C23.2366 8.84301 23.3098 8.72018 23.3354 8.58384C23.361 8.4475 23.3375 8.30649 23.269 8.18587L20.938 4.14862C20.8685 4.02814 20.7585 3.93624 20.6275 3.88928C20.4966 3.84233 20.3533 3.84338 20.2231 3.89225L17.3181 5.05775C16.7159 4.59093 16.0537 4.20716 15.3493 3.91675L14.9048 0.823621C14.8858 0.686505 14.8173 0.561074 14.7122 0.470975C14.6072 0.380876 14.4727 0.332332 14.3343 0.334496H9.66533C9.52692 0.332332 9.3925 0.380876 9.28741 0.470975C9.18232 0.561074 9.11382 0.686505 9.09483 0.823621L8.65033 3.91675C7.93895 4.20725 7.2862 4.60362 6.68158 5.05775L3.77658 3.89225C3.6467 3.83998 3.50216 3.83722 3.37038 3.88448C3.2386 3.93173 3.12876 4.02573 3.0617 4.14862L0.7307 8.18587C0.658863 8.30561 0.633437 8.44755 0.659239 8.58478C0.685041 8.72201 0.760279 8.84502 0.8707 8.9305L3.33208 10.8555C3.28395 11.2309 3.24983 11.6132 3.24983 12C3.24983 12.3859 3.28483 12.7691 3.33208 13.1454L0.869825 15.0695C0.762159 15.157 0.689007 15.2798 0.663373 15.4162C0.637739 15.5525 0.661285 15.6935 0.729825 15.8141L3.06083 19.8514C3.20083 20.1077 3.51933 20.2031 3.7757 20.1077L6.6807 18.9422C7.28287 19.4091 7.94504 19.7928 8.64945 20.0832L9.09395 23.1764C9.12808 23.4564 9.37395 23.6655 9.66445 23.6655H14.3335C14.4719 23.6677 14.6063 23.6191 14.7114 23.529C14.8165 23.4389 14.885 23.3135 14.904 23.1764L15.3485 20.0832C16.0509 19.7889 16.7126 19.4054 17.3172 18.9422L20.2222 20.1077C20.4926 20.2127 20.7971 20.1077 20.9371 19.8514L23.2681 15.8141C23.3366 15.6935 23.3602 15.5525 23.3345 15.4162C23.3089 15.2798 23.2357 15.157 23.1281 15.0695L20.6676 13.1454ZM11.9998 16.0845C10.9169 16.0833 9.87867 15.6526 9.11293 14.8869C8.34719 14.1212 7.91648 13.0829 7.91533 12C7.91648 10.9171 8.34719 9.87884 9.11293 9.1131C9.87867 8.34736 10.9169 7.91665 11.9998 7.9155C13.0827 7.91665 14.121 8.34736 14.8867 9.1131C15.6525 9.87884 16.0832 10.9171 16.0843 12C16.0832 13.0829 15.6525 14.1212 14.8867 14.8869C14.121 15.6526 13.0827 16.0833 11.9998 16.0845Z" fill="black"/>
</svg>
